<svg width="381" height="381" viewBox="0 0 381 381" fill="none" xmlns="http://www.w3.org/2000/svg">
<path d="M122.974 341.473C136.15 333.882 143.836 322.021 143.836 303.043" stroke="#C10610"/>
<path d="M259.124 341.473C245.948 333.882 238.262 322.021 238.262 303.043" stroke="#C10610"/>
<path d="M261.32 65.8789H6.58789V303.043H375.51V65.8789H284.378" stroke="#C10610"/>
<path d="M30.1945 258.026V279.986H351.354V90.5835H30.1945V234.419" stroke="#C10610"/>
<path d="M119.68 141.091V228.929L190.5 264.614M119.68 141.091L190.5 175.128M119.68 141.091L190.5 106.504L261.869 141.091M190.5 264.614V175.128M190.5 264.614L231.125 245.551M190.5 175.128L261.869 141.091M261.869 141.091V231.125L251.987 235.762" stroke="#170754"/>
<path d="M191.049 106.504V29.0967" stroke="#170754"/>
<path d="M234.968 128.464V46.1154H289.867V29.0967" stroke="#170754"/>
<path d="M146.032 129.013V46.6642H91.1326V29.6455" stroke="#170754"/>
<circle cx="190.5" cy="15.9206" r="13.2248" stroke="#170754"/>
<circle cx="90.5836" cy="15.9206" r="13.2248" stroke="#170754"/>
<circle cx="289.318" cy="15.9206" r="13.2248" stroke="#170754"/>
<rect x="83.9467" y="341.973" width="214.205" height="26.4496" stroke="#C10610"/>
</svg>
