<svg width="432" height="279" viewBox="0 0 432 279" fill="none" xmlns="http://www.w3.org/2000/svg">
<path d="M297.905 1H1V277.595H431V1H324.78" stroke="#C10610"/>
<path d="M228.784 155.567L386.838 155.567" stroke="#170754"/>
<path d="M228.784 178.811L386.838 178.811" stroke="#170754"/>
<path d="M228.784 202.054L329.892 202.054" stroke="#170754"/>
<path d="M228.784 132.324L386.838 132.324" stroke="#170754"/>
<path d="M228.784 109.081L386.838 109.081" stroke="#170754"/>
<path d="M228.784 74.2163L329.892 74.2163" stroke="#170754"/>
<path d="M1 35.8647H431" stroke="#C10610"/>
<path d="M21.9189 19.5947L33.5405 19.5947" stroke="#C10610"/>
<path d="M39.3513 19.5947L50.973 19.5947" stroke="#C10610"/>
<path d="M56.7838 19.5947L68.4054 19.5947" stroke="#C10610"/>
<rect x="45.6622" y="73.5542" width="161.703" height="161.703" stroke="#170754"/>
<path d="M159.223 102.044C163.033 102.044 166.757 103.174 169.925 105.291C173.093 107.408 175.562 110.417 177.021 113.937C178.479 117.457 178.86 121.33 178.117 125.067C177.373 128.804 175.539 132.236 172.845 134.931C170.15 137.625 166.718 139.46 162.981 140.203C159.244 140.946 155.371 140.565 151.851 139.107C148.33 137.649 145.322 135.179 143.205 132.011C141.088 128.843 139.958 125.119 139.958 121.309C139.958 116.2 141.988 111.3 145.601 107.687C149.214 104.074 154.113 102.044 159.223 102.044Z" stroke="#170754" stroke-linecap="round" stroke-linejoin="round"/>
<path d="M189.851 203.216H64.3378L108.5 138.135L143.365 172.419L153.243 164.284L189.851 203.216Z" stroke="#170754"/>
</svg>
