<svg width="418" height="264" viewBox="0 0 418 264" fill="none" xmlns="http://www.w3.org/2000/svg">
<path d="M190.711 160.613L153.783 86.5352L65.8172 263H1L99.769 64.1881C104.399 54.941 114.43 48.7764 125.233 48.7764L191.593 48.7764C202.396 48.7764 212.428 54.941 217.057 64.1881L264.586 160.613M206.952 193.195L241.75 263L315.054 263L280.646 193.195" stroke="#170754"/>
<path d="M396.857 200.582C389.912 216.765 373.707 228.323 355.187 228.323H314.291L322.009 244.505H355.187C389.14 244.505 416.919 216.765 416.919 182.858V182.088C411.518 189.794 404.573 195.958 396.857 200.582Z" stroke="#C10610"/>
<path d="M34.9569 162.053L34.9569 62.6471C34.9569 37.2177 55.7909 17.1823 80.4832 17.1823L183.11 17.1823C186.969 11.0177 190.827 5.62354 196.228 1L80.4832 1C46.5313 1 18.7525 28.7412 18.7525 62.6471L18.7525 194.418L34.9569 162.053Z" stroke="#C10610"/>
<path d="M190.83 34.1354C197.775 14.8706 213.207 1 230.956 1L395.314 1L383.739 16.4118C375.252 26.4294 365.22 32.594 353.646 32.594L263.364 32.594C253.332 32.594 244.845 43.3823 244.845 56.4823C244.845 69.5823 253.332 80.3706 263.364 80.3706L372.165 80.3706C384.509 80.3706 395.314 86.5354 403.029 96.5529C406.888 101.177 409.974 106.571 412.289 112.735C415.375 120.441 416.92 128.147 416.92 136.623C416.92 167.447 396.856 192.877 372.935 192.877L122.155 192.877L134.501 176.694C142.989 166.677 153.02 160.512 164.595 160.512L342.071 160.512C352.101 159.741 360.589 149.723 360.589 136.623C360.589 123.523 352.101 112.735 342.071 112.735H257.191" stroke="#C10610"/>
</svg>
